<?xml version="1.0" standalone="no"?>
<!DOCTYPE svg PUBLIC "-//W3C//DTD SVG 20010904//EN"
 "http://www.w3.org/TR/2001/REC-SVG-20010904/DTD/svg10.dtd">
<svg version="1.0" xmlns="http://www.w3.org/2000/svg"
 width="1006.000000pt" height="1006.000000pt" viewBox="0 0 1006.000000 1006.000000"
 preserveAspectRatio="xMidYMid meet">
<metadata>
Created by potrace 1.14, written by Peter Selinger 2001-2017
</metadata>
<g transform="translate(0.000000,1006.000000) scale(0.100000,-0.100000)"
fill="#000000" stroke="none">
<path d="M4749 10055 c-2 -1 -48 -6 -101 -9 -54 -4 -114 -9 -135 -11 -21 -3
-56 -7 -78 -9 -85 -10 -202 -27 -245 -37 -25 -5 -61 -11 -80 -14 -19 -2 -46
-6 -60 -9 -43 -10 -74 -16 -95 -20 -93 -19 -398 -103 -510 -141 -361 -124
-722 -288 -966 -440 -9 -5 -32 -19 -50 -29 -72 -40 -300 -195 -420 -286 -276
-207 -571 -483 -791 -740 -101 -118 -126 -149 -209 -260 -258 -343 -478 -732
-643 -1137 -77 -189 -203 -584 -230 -723 -3 -14 -14 -65 -25 -115 -114 -515
-138 -1138 -65 -1710 182 -1432 1015 -2752 2239 -3549 33 -22 71 -47 85 -56
143 -96 513 -286 735 -378 321 -133 747 -257 1053 -307 58 -9 87 -14 122 -21
19 -3 49 -7 65 -9 17 -1 55 -5 85 -9 95 -13 112 -14 220 -23 200 -15 767 -8
890 11 14 2 52 7 85 11 33 4 78 9 100 11 33 4 151 24 295 51 474 85 1072 310
1520 571 165 96 465 293 490 321 3 4 32 26 65 50 216 160 619 545 796 761 149
184 339 446 416 575 6 11 39 66 73 122 62 104 184 339 232 448 14 33 35 80 46
105 195 441 338 1005 386 1530 19 210 14 800 -8 990 -70 581 -203 1062 -435
1568 -587 1281 -1724 2279 -3071 2695 -234 73 -562 148 -745 172 -27 3 -79 10
-115 15 -36 5 -96 12 -135 15 -38 4 -83 9 -100 11 -35 6 -681 14 -686 9z"/>
</g>
</svg>
